<?xml version="1.0" encoding="utf-8"?>
<!-- Svg Vector Icons : http://www.onlinewebfonts.com/icon -->
<!DOCTYPE svg PUBLIC "-//W3C//DTD SVG 1.1//EN" "http://www.w3.org/Graphics/SVG/1.1/DTD/svg11.dtd">
<svg height="32px" fill="#000000" version="1.1" xmlns="http://www.w3.org/2000/svg" xmlns:xlink="http://www.w3.org/1999/xlink" x="0px" y="0px" viewBox="0 0 1000 1000" enable-background="new 0 0 1000 1000" xml:space="preserve">
<metadata> Svg Vector Icons : http://www.onlinewebfonts.com/icon </metadata>
<g><g transform="translate(0.000000,511.000000) scale(0.100000,-0.100000)"><path d="M1952.2,4997.4c-32-10-79.9-39.9-101.9-63.9c-53.9-57.9-691-2430.6-673.1-2502.5c30-121.8,193.7-177.7,381.5-131.8c51.9,14,219.7,73.9,375.5,135.8c585.2,233.7,1126.4,393.4,1529.9,453.4c591.2,87.9,928.7-16,1028.6-313.6c57.9-175.8,28-479.3-229.7-2350.7c-339.5-2448.6-437.4-3447.2-415.4-4232.1c14-483.3,61.9-701,171.8-760.9c53.9-28,1907.4-28,1961.3,0c109.9,59.9,157.8,277.6,171.8,760.9c22,778.9-79.9,1811.5-413.4,4222.1c-259.6,1881.4-289.6,2185-231.7,2360.7c41.9,127.8,145.8,231.7,289.6,289.6c97.9,39.9,147.8,43.9,411.4,43.9c247.7,0,343.5-10,549.2-53.9c339.5-73.9,729-191.7,1098.5-337.5c553.2-217.7,617.1-237.7,743-229.7c125.8,8,201.7,55.9,223.7,143.8c8,28-107.9,499.3-297.6,1212.3c-171.8,639.1-315.6,1180.4-321.5,1200.3c-10,30,4,34,93.8,34h103.9l-45.9,49.9c-109.9,117.8-277.6,109.8-768.9-34c-153.8-43.9-369.5-105.8-479.3-137.8c-533.3-155.8-1218.3-237.7-2007.2-237.7c-814.9,0-1482,81.9-2061.1,251.7C2277.8,4995.4,2080,5035.3,1952.2,4997.4z"/></g></g>
</svg>